# xmcd
#
# Track frame offsets:
#	150
#	10168
#	23268
#	39281
#	55257
#	70385
#	82739
#	101256
#	120040
#	138602
#	155585
#	176039
#
# Disc length: 2481 seconds
#
# Revision: 0
# Processed by: cddbd v1.5.2PL0 Copyright (c) Steve Scherf et al.
# Submitted via: EZCDAudioConverter 1.0.2.1
#
DISCID=8409af0c
DTITLE=Patrick Brealey - Mercury In Songbirds
DYEAR=1900
DGENRE=
TTITLE0=My End Of The Deal 
TTITLE1=I Don't Want To Hear Another Love Song 
TTITLE2=Something To Do With You 
TTITLE3=Castaway Heart 
TTITLE4=Some Days Aren't Very Good 
TTITLE5=Blessing In Disguise 
TTITLE6=The Devil Didn't Make Me Do It 
TTITLE7=Please Don't Love Me With That Love
TTITLE8=Wildfire 
TTITLE9=I Told Her
TTITLE10=Learn To Let It Go 
TTITLE11=A Little On The Side 
EXTD=
EXTT0=
EXTT1=
EXTT2=
EXTT3=
EXTT4=
EXTT5=
EXTT6=
EXTT7=
EXTT8=
EXTT9=
EXTT10=
EXTT11=
PLAYORDER=
